<svg xmlns="http://www.w3.org/2000/svg" viewBox="0 0 2034 933"><defs><style>.cls-1{fill:#282828;}</style></defs><title>Artboard 1</title><g id="Layer_3" data-name="Layer 3"><path class="cls-1" d="M628.71,527.77,321.62,327.07a4.43,4.43,0,0,1-1.74-2.2L260.74,161.49c-4.57-12.64-23.35-10.24-24.52,3.13L205.76,511.93A24.77,24.77,0,0,1,181,534.39H83.08c-20.75,0-34.28,21.54-25.07,39.9L167.76,793.07c9.82,19.35,39.15,14,41.3-7.56l19.52-195.63a22.39,22.39,0,0,1,21.85-20L619,561.13C637,560.71,643.75,537.6,628.71,527.77ZM200.93,592.13,188.28,704c-1.57,9.16-16,10.34-20.32,2.11L105.13,587.82a15.34,15.34,0,0,1,13.31-22.44l57.5-1.62A24.43,24.43,0,0,1,200.93,592.13ZM331.22,533l-67.41,2.59a22.16,22.16,0,0,1-23.12-23.43l17.66-267.22c.53-4.75,5.88-4.75,7-.53l78.63,270.86A13.72,13.72,0,0,1,331.22,533Zm214.86-3.86-158.31,2.11c-7.9.13-15.34-6.35-17.37-13.9L339.15,401.61c-2.8-10.38,8.92-18.65,18-12.66L549.59,516.56C554.43,519.77,551.89,529,546.07,529.11Z"/></g><g id="Layer_2" data-name="Layer 2"><path class="cls-1" d="M815.44,530.67,787.72,715H746.56l27.72-184.33H731.72l5.6-37.69H863.6L858,530.67Z"/><path class="cls-1" d="M914,465.3h39.2L935.56,582.5h.56q14.28-16.78,38.36-16.78,47.6,0,38.64,61L999.68,715h-39.2L972,638.44a4.33,4.33,0,0,0,.28-1.77q.84-5.89,1.26-9t.7-8.39a23.41,23.41,0,0,0-.7-8.24,43.62,43.62,0,0,0-2.66-6.18,10,10,0,0,0-5.32-4.71,23.13,23.13,0,0,0-8.68-1.47,22,22,0,0,0-11.9,3.24,28,28,0,0,0-8.12,7.36,43.12,43.12,0,0,0-5.32,11.19A91.05,91.05,0,0,0,928.28,632q-.84,4.42-2,11.48L915.68,715h-39.2Z"/><path class="cls-1" d="M1089.7,587.35q23.38-21.64,55.44-21.64T1194,587.35q16.8,21.64,11.76,55.5t-28.42,55.36q-23.38,21.5-55.44,21.5T1073,698.22q-16.8-21.49-11.76-55.36T1089.7,587.35Zm71.4,27.24q-7.14-12.37-21.56-12.37t-25.34,12.37A53.08,53.08,0,0,0,1101,642.86q-2.52,15.61,4.76,28t21.56,12.37q14.28,0,25.2-12.37a54.76,54.76,0,0,0,13.44-28Q1168.24,627,1161.1,614.59Z"/><path class="cls-1" d="M1306.56,570.42l-2,13h.56a47.7,47.7,0,0,1,16.52-13,44.92,44.92,0,0,1,19.6-4.71q26.32,0,36.12,22.67a55.66,55.66,0,0,1,19.6-16.64,51.66,51.66,0,0,1,23.8-6q43.68,0,34.72,59.18L1442.08,715h-39.2l11.48-76a8.4,8.4,0,0,1,.28-1.77q.84-5,1.12-8t.7-8.24a26.7,26.7,0,0,0-.42-8.54q-.84-3.24-2.1-6.77a9.47,9.47,0,0,0-4.48-5.3,15.18,15.18,0,0,0-7.42-1.77,20.48,20.48,0,0,0-9.38,2.06,17.54,17.54,0,0,0-6.86,6.48q-2.8,4.42-4.76,8.25a46.89,46.89,0,0,0-3.5,10.31q-1.54,6.48-2.1,9.57T1374,644l-10.64,71h-39.2l10.92-73.32a20.16,20.16,0,0,0,.56-2.94q.84-5.3,1.26-8.39t.84-8.54a32.83,32.83,0,0,0-.28-8.83,39.14,39.14,0,0,0-2.24-7.07,10.89,10.89,0,0,0-4.62-5.45,15,15,0,0,0-7.56-1.77,18.31,18.31,0,0,0-10.78,3.24,27.8,27.8,0,0,0-7.28,7.21,41.47,41.47,0,0,0-4.76,10.89,94.85,94.85,0,0,0-2.8,11q-.7,4.13-1.82,10.9a5.33,5.33,0,0,1-.28,2.06l-10.64,71h-39.2l21.84-144.58Z"/><path class="cls-1" d="M1609.8,580.73l-20.44,23.85q-8.4-10-19-10a15.12,15.12,0,0,0-9.52,3.53,13.69,13.69,0,0,0-5.32,8.83,8.91,8.91,0,0,0,.56,5.45,10.49,10.49,0,0,0,4.06,4.42,55.64,55.64,0,0,0,5.6,3.24q2.66,1.33,7.56,3.39a68.18,68.18,0,0,1,7.42,3.53q12.32,5.89,18.48,15.16t3.64,26.35q-3.64,23.26-21.14,37.25a62.57,62.57,0,0,1-40.18,14,53.74,53.74,0,0,1-25.62-6.33,50.34,50.34,0,0,1-19.18-17.81l21.84-24.44q11.76,16.78,26.6,16.78A18.2,18.2,0,0,0,1563,672.3a14.18,14.18,0,0,0-.28-6.33,10.45,10.45,0,0,0-3.92-5.15,46.58,46.58,0,0,0-5.18-3.53q-2.1-1.17-7.42-3.53l-7.28-3.24q-12-5.89-18.06-14.13t-3.78-23.85q3.08-20.32,17.36-33.57a47.44,47.44,0,0,1,33.32-13.25,75.69,75.69,0,0,1,23.52,3.83Q1603.08,573.37,1609.8,580.73Z"/><path class="cls-1" d="M1679.1,587.35q23.38-21.64,55.44-21.64t48.86,21.64q16.8,21.64,11.76,55.5t-28.42,55.36q-23.38,21.5-55.44,21.5t-48.86-21.5q-16.8-21.49-11.76-55.36T1679.1,587.35Zm71.4,27.24q-7.14-12.37-21.56-12.37t-25.34,12.37a53.08,53.08,0,0,0-13.16,28.27q-2.52,15.61,4.76,28t21.56,12.37q14.28,0,25.2-12.37a54.76,54.76,0,0,0,13.44-28Q1757.64,627,1750.5,614.59Z"/><path class="cls-1" d="M1896,570.42l-2,13.25h.56q14-18,38.36-18,47.6,0,38.64,61L1958.12,715h-39.2l11.48-76.56a4.33,4.33,0,0,0,.28-1.77q.84-5.89,1.26-9t.7-8.39a23.41,23.41,0,0,0-.7-8.24,43.62,43.62,0,0,0-2.66-6.18,10,10,0,0,0-5.32-4.71,23.13,23.13,0,0,0-8.68-1.47,22,22,0,0,0-11.9,3.24,28,28,0,0,0-8.12,7.36,43.12,43.12,0,0,0-5.32,11.19,91.05,91.05,0,0,0-3.22,11.48q-.84,4.42-2,11.48L1874.12,715h-39.2l21.84-144.58Z"/><path class="cls-1" d="M815.19,243.91,787.47,428.24H746.31L774,243.91H731.47l5.6-37.69H863.35l-5.6,37.69Z"/><path class="cls-1" d="M914.87,283.66l-2.24,15h.56q15.12-19.72,37-19.73a39.22,39.22,0,0,1,15.68,3.53l-10.36,38.28a23.47,23.47,0,0,0-15.4-5.3,32.1,32.1,0,0,0-14,2.94,29.71,29.71,0,0,0-9.94,7.36A41.38,41.38,0,0,0,909.55,337a84.43,84.43,0,0,0-4.2,12.66q-1.4,5.89-2.52,13.54L893,428.24h-39.2l21.84-144.58Z"/><path class="cls-1" d="M1051.79,283.66,1030,428.24h-39.2l21.84-144.58Zm-24.36-77.88q7.84-7.21,17.5-7.21a18.67,18.67,0,0,1,15.4,7.21q5.74,7.22,4.06,17.23a27.78,27.78,0,0,1-9.24,17.37,25.51,25.51,0,0,1-17.5,7.07,18.65,18.65,0,0,1-15.4-7.21q-5.74-7.21-4.34-17.23A29.56,29.56,0,0,1,1027.43,205.78Z"/><path class="cls-1" d="M1199.35,294l-20.44,23.85q-8.4-10-19-10a15.12,15.12,0,0,0-9.52,3.53,13.69,13.69,0,0,0-5.32,8.83,8.9,8.9,0,0,0,.56,5.45,10.49,10.49,0,0,0,4.06,4.42,55.66,55.66,0,0,0,5.6,3.24q2.66,1.32,7.56,3.39a68.18,68.18,0,0,1,7.42,3.53q12.32,5.89,18.48,15.16t3.64,26.35Q1188.71,405,1171.21,419a62.57,62.57,0,0,1-40.18,14,53.74,53.74,0,0,1-25.62-6.33,50.33,50.33,0,0,1-19.18-17.81l21.84-24.44q11.76,16.78,26.6,16.78a18.2,18.2,0,0,0,17.92-15.61,14.18,14.18,0,0,0-.28-6.33,10.45,10.45,0,0,0-3.92-5.15,46.72,46.72,0,0,0-5.18-3.53q-2.1-1.17-7.42-3.53l-7.28-3.24q-12-5.89-18.06-14.13t-3.78-23.85q3.08-20.32,17.36-33.57a47.44,47.44,0,0,1,33.32-13.25,75.7,75.7,0,0,1,23.52,3.83Q1192.63,286.61,1199.35,294Z"/><path class="cls-1" d="M1299.31,318.41l-16.52,109.83h-39.2l16.52-109.83h-13.44l5.32-34.75h13.44l7.28-48.88h39.2l-7.28,48.88h24.08l-5.32,34.75Z"/><path class="cls-1" d="M1499.51,283.66l-21.84,144.58H1439l2-13.25h-.56a51.88,51.88,0,0,1-18.34,13.25,53.82,53.82,0,0,1-21.7,4.71q-19.32,0-32.34-11.34a55.46,55.46,0,0,1-17.5-28.86,96.42,96.42,0,0,1-1.68-37.54,107.54,107.54,0,0,1,12.88-36.66,84.73,84.73,0,0,1,26.18-28.41,61.15,61.15,0,0,1,35.14-11.19,45.51,45.51,0,0,1,20.44,4.71,37,37,0,0,1,15.12,13.54l2.24-13.54Zm-106,100.26q7.14,12.52,21.42,12.51t25.48-12.51a52.76,52.76,0,0,0,13.44-28.12q2.24-15.6-5-28t-21.7-12.37q-14.42,0-25.34,12.37a52.9,52.9,0,0,0-13.16,28Q1386.38,371.41,1393.53,383.92Z"/><path class="cls-1" d="M1599.19,283.66l-2,13.25h.56q14-18,38.36-18,47.6,0,38.64,61l-13.44,88.34h-39.2l11.48-76.56a4.33,4.33,0,0,0,.28-1.77q.84-5.89,1.26-9t.7-8.39a23.41,23.41,0,0,0-.7-8.24,43.62,43.62,0,0,0-2.66-6.18,10,10,0,0,0-5.32-4.71,23.14,23.14,0,0,0-8.68-1.47,22,22,0,0,0-11.9,3.24,28.05,28.05,0,0,0-8.12,7.36,43.12,43.12,0,0,0-5.32,11.19,91.06,91.06,0,0,0-3.22,11.48q-.84,4.42-2,11.48l-10.64,71.55h-39.2L1560,283.66Z"/></g></svg>